<svg width="235" height="242" viewBox="0 0 235 242" fill="none" xmlns="http://www.w3.org/2000/svg">
<circle cx="34" cy="58" r="24" fill="#22282B" fill-opacity="0.04"/>
<circle cx="34" cy="58" r="23.5" stroke="#22282B" stroke-opacity="0.21"/>
<g clip-path="url(#clip0_0_1175)">
<path d="M46 58C46 51.3726 40.6274 46 34 46C27.3726 46 22 51.3726 22 58C22 63.9895 26.3882 68.954 32.125 69.8542V61.4687H29.0781V58H32.125V55.3562C32.125 52.3488 33.9166 50.6875 36.6576 50.6875C37.9701 50.6875 39.3438 50.9219 39.3438 50.9219V53.875H37.8306C36.34 53.875 35.875 54.8001 35.875 55.75V58H39.2031L38.6711 61.4687H35.875V69.8542C41.6118 68.954 46 63.9895 46 58Z" fill="#22282B"/>
</g>
<circle cx="150" cy="58" r="24" fill="#22282B" fill-opacity="0.04"/>
<circle cx="150" cy="58" r="23.5" stroke="#22282B" stroke-opacity="0.21"/>
<path d="M145.55 67.7502C154.605 67.7502 159.558 60.247 159.558 53.7421C159.558 53.5312 159.554 53.3155 159.544 53.1046C160.508 52.4077 161.339 51.5445 162 50.5555C161.103 50.9548 160.15 51.2156 159.174 51.329C160.201 50.7132 160.971 49.7457 161.339 48.606C160.373 49.1788 159.316 49.5829 158.213 49.8009C157.471 49.0118 156.489 48.4894 155.42 48.3143C154.35 48.1392 153.253 48.3213 152.298 48.8323C151.342 49.3434 150.582 50.155 150.134 51.1416C149.686 52.1282 149.575 53.2349 149.82 54.2905C147.862 54.1923 145.948 53.6839 144.2 52.7983C142.452 51.9127 140.91 50.6697 139.673 49.1498C139.044 50.2335 138.852 51.5159 139.135 52.7363C139.418 53.9568 140.155 55.0237 141.196 55.7202C140.415 55.6954 139.65 55.4849 138.966 55.1062V55.1671C138.965 56.3044 139.358 57.4068 140.078 58.287C140.799 59.1672 141.801 59.7708 142.916 59.9952C142.192 60.1934 141.432 60.2222 140.695 60.0796C141.009 61.0577 141.622 61.9131 142.446 62.5266C143.27 63.14 144.265 63.4808 145.292 63.5015C143.548 64.8714 141.394 65.6144 139.177 65.6109C138.783 65.6103 138.39 65.5862 138 65.5387C140.253 66.984 142.874 67.7516 145.55 67.7502Z" fill="#22282B"/>
<circle cx="34" cy="153.5" r="24" fill="#22282B" fill-opacity="0.04"/>
<circle cx="34" cy="153.5" r="23.5" stroke="#22282B" stroke-opacity="0.21"/>
<g clip-path="url(#clip1_0_1175)">
<path d="M34 143.661C37.2063 143.661 37.5859 143.675 38.8469 143.731C40.0188 143.783 40.6516 143.98 41.0734 144.144C41.6313 144.359 42.0344 144.622 42.4516 145.039C42.8734 145.461 43.1313 145.859 43.3469 146.417C43.5109 146.839 43.7078 147.477 43.7594 148.644C43.8156 149.909 43.8297 150.289 43.8297 153.491C43.8297 156.697 43.8156 157.077 43.7594 158.338C43.7078 159.509 43.5109 160.142 43.3469 160.564C43.1313 161.122 42.8688 161.525 42.4516 161.942C42.0297 162.364 41.6313 162.622 41.0734 162.838C40.6516 163.002 40.0141 163.198 38.8469 163.25C37.5813 163.306 37.2016 163.32 34 163.32C30.7938 163.32 30.4141 163.306 29.1531 163.25C27.9813 163.198 27.3484 163.002 26.9266 162.838C26.3688 162.622 25.9656 162.359 25.5484 161.942C25.1266 161.52 24.8688 161.122 24.6531 160.564C24.4891 160.142 24.2922 159.505 24.2406 158.338C24.1844 157.072 24.1703 156.692 24.1703 153.491C24.1703 150.284 24.1844 149.905 24.2406 148.644C24.2922 147.472 24.4891 146.839 24.6531 146.417C24.8688 145.859 25.1313 145.456 25.5484 145.039C25.9703 144.617 26.3688 144.359 26.9266 144.144C27.3484 143.98 27.9859 143.783 29.1531 143.731C30.4141 143.675 30.7938 143.661 34 143.661ZM34 141.5C30.7422 141.5 30.3344 141.514 29.0547 141.57C27.7797 141.627 26.9031 141.833 26.1438 142.128C25.3516 142.438 24.6813 142.845 24.0156 143.516C23.3453 144.181 22.9375 144.852 22.6281 145.639C22.3328 146.403 22.1266 147.275 22.0703 148.55C22.0141 149.834 22 150.242 22 153.5C22 156.758 22.0141 157.166 22.0703 158.445C22.1266 159.72 22.3328 160.597 22.6281 161.356C22.9375 162.148 23.3453 162.819 24.0156 163.484C24.6813 164.15 25.3516 164.563 26.1391 164.867C26.9031 165.163 27.775 165.369 29.05 165.425C30.3297 165.481 30.7375 165.495 33.9953 165.495C37.2531 165.495 37.6609 165.481 38.9406 165.425C40.2156 165.369 41.0922 165.163 41.8516 164.867C42.6391 164.563 43.3094 164.15 43.975 163.484C44.6406 162.819 45.0531 162.148 45.3578 161.361C45.6531 160.597 45.8594 159.725 45.9156 158.45C45.9719 157.17 45.9859 156.763 45.9859 153.505C45.9859 150.247 45.9719 149.839 45.9156 148.559C45.8594 147.284 45.6531 146.408 45.3578 145.648C45.0625 144.852 44.6547 144.181 43.9844 143.516C43.3188 142.85 42.6484 142.438 41.8609 142.133C41.0969 141.838 40.225 141.631 38.95 141.575C37.6656 141.514 37.2578 141.5 34 141.5Z" fill="#22282B"/>
<path d="M34 147.336C30.5969 147.336 27.8359 150.097 27.8359 153.5C27.8359 156.903 30.5969 159.664 34 159.664C37.4031 159.664 40.1641 156.903 40.1641 153.5C40.1641 150.097 37.4031 147.336 34 147.336ZM34 157.498C31.7922 157.498 30.0016 155.708 30.0016 153.5C30.0016 151.292 31.7922 149.502 34 149.502C36.2078 149.502 37.9984 151.292 37.9984 153.5C37.9984 155.708 36.2078 157.498 34 157.498Z" fill="#22282B"/>
<path d="M41.8469 147.092C41.8469 147.889 41.2 148.531 40.4078 148.531C39.6109 148.531 38.9688 147.885 38.9688 147.092C38.9688 146.296 39.6156 145.653 40.4078 145.653C41.2 145.653 41.8469 146.3 41.8469 147.092Z" fill="#22282B"/>
</g>
<circle cx="150" cy="153.5" r="24" fill="#22282B" fill-opacity="0.04"/>
<circle cx="150" cy="153.5" r="23.5" stroke="#22282B" stroke-opacity="0.21"/>
<g clip-path="url(#clip2_0_1175)">
<path d="M160.223 141.5H139.772C138.792 141.5 138 142.273 138 143.23V163.766C138 164.722 138.792 165.5 139.772 165.5H160.223C161.203 165.5 162 164.722 162 163.77V143.23C162 142.273 161.203 141.5 160.223 141.5ZM145.12 161.952H141.558V150.495H145.12V161.952ZM143.339 148.934C142.195 148.934 141.272 148.011 141.272 146.872C141.272 145.733 142.195 144.809 143.339 144.809C144.478 144.809 145.402 145.733 145.402 146.872C145.402 148.006 144.478 148.934 143.339 148.934ZM158.452 161.952H154.894V156.383C154.894 155.056 154.87 153.345 153.042 153.345C151.191 153.345 150.909 154.794 150.909 156.289V161.952H147.356V150.495H150.769V152.061H150.816C151.289 151.161 152.452 150.209 154.181 150.209C157.786 150.209 158.452 152.581 158.452 155.666V161.952Z" fill="#22282B"/>
</g>
<defs>
<clipPath id="clip0_0_1175">
<rect width="24" height="24" fill="white" transform="translate(22 46)"/>
</clipPath>
<clipPath id="clip1_0_1175">
<rect width="24" height="24" fill="white" transform="translate(22 141.5)"/>
</clipPath>
<clipPath id="clip2_0_1175">
<rect width="24" height="24" fill="white" transform="translate(138 141.5)"/>
</clipPath>
</defs>
</svg>
